 <svg version="1.0" xmlns="http://www.w3.org/2000/svg" width="700.000000pt" height="700.000000pt" viewBox="0 0 700.000000 700.000000" preserveAspectRatio="xMidYMid meet">
<metadata>
Created by potrace 1.12, written by Peter Selinger 2001-2015
</metadata>
<g transform="translate(0.000000,700.000000) scale(0.100000,-0.100000)" fill="#000000" stroke="none">
<path d="M0 3500 l0 -3500 3500 0 3500 0 0 3500 0 3500 -3500 0 -3500 0 0
-3500z m2920 2840 c-8 -5 -23 -10 -32 -10 -31 0 -27 -16 4 -18 18 -2 45 -11
62 -21 17 -10 44 -22 61 -26 29 -6 29 -7 11 -21 -31 -22 -12 -28 51 -15 163
31 547 40 738 16 126 -15 366 -65 470 -96 71 -22 249 -87 318 -116 59 -25 88
-98 36 -88 -19 4 -20 3 -7 -17 8 -12 23 -27 33 -32 37 -21 87 -77 81 -91 -5
-15 34 -48 86 -75 29 -14 88 -107 91 -141 1 -10 9 -19 17 -19 9 0 20 -3 24 -7
4 -5 11 -8 14 -8 4 0 17 -8 30 -17 28 -19 13 -34 -18 -18 -14 8 -20 8 -20 0 0
-6 -11 -3 -24 7 -13 10 -21 23 -18 28 3 6 -6 0 -20 -12 -13 -13 -30 -23 -36
-23 -18 0 -15 -15 14 -71 31 -63 26 -99 -21 -136 -28 -23 -31 -28 -19 -40 12
-12 11 -19 -4 -45 -36 -64 -42 -73 -42 -65 0 5 -5 5 -10 2 -8 -5 -7 -11 1 -21
6 -7 16 -11 23 -7 6 4 5 -1 -2 -10 -15 -18 -8 -37 14 -37 8 0 19 -11 24 -25 5
-14 14 -25 20 -25 6 0 2 -13 -10 -30 -12 -16 -18 -30 -15 -30 3 0 -3 -14 -16
-31 -16 -23 -19 -33 -10 -42 6 -6 11 -19 11 -30 0 -10 5 -15 10 -12 7 4 8 -13
4 -49 -7 -57 -4 -62 34 -57 7 1 29 -12 48 -28 39 -35 42 -36 68 -16 39 29 64
19 92 -36 28 -56 109 -149 130 -149 7 0 15 -6 17 -12 3 -7 3 1 0 19 -4 24 -1
33 15 42 33 17 57 13 83 -15 19 -20 24 -36 23 -75 0 -27 -4 -52 -8 -56 -4 -4
-21 -2 -38 5 -39 15 -48 9 -48 -32 0 -18 -9 -59 -20 -91 -11 -32 -20 -79 -20
-105 0 -25 -7 -55 -15 -66 -9 -12 -14 -44 -15 -91 0 -51 -4 -76 -16 -87 -8 -9
-12 -16 -7 -16 4 0 -9 -11 -30 -25 -21 -15 -39 -37 -43 -53 -4 -15 -17 -60
-31 -100 -24 -72 -36 -166 -34 -251 1 -24 -8 -71 -19 -104 -23 -65 -29 -142
-12 -159 7 -7 12 0 17 21 4 17 20 42 38 55 32 26 39 53 38 166 -1 105 57 350
87 369 5 3 13 16 17 29 7 23 59 62 83 62 28 0 69 63 82 127 10 52 18 68 42 86
35 26 62 82 49 104 -5 9 -7 23 -5 32 2 9 6 37 9 63 6 45 8 48 43 53 77 12 122
28 126 44 2 9 7 30 11 48 8 41 32 49 62 22 12 -13 23 -26 23 -31 0 -4 12 -32
26 -61 36 -72 35 -145 -2 -194 -25 -33 -29 -35 -71 -29 -25 3 -53 1 -64 -4
-30 -16 -49 -64 -49 -122 0 -49 -3 -57 -37 -90 -21 -20 -52 -43 -70 -52 -18
-9 -37 -25 -42 -35 -6 -10 -23 -23 -38 -29 -44 -15 -70 -47 -78 -92 -4 -23 -5
-44 -2 -46 3 -3 -10 -41 -28 -84 l-33 -80 44 -20 c47 -20 99 -18 119 4 6 6 23
17 39 24 22 10 27 18 24 37 -8 38 5 49 40 37 19 -6 33 -7 39 -1 7 7 25 5 51
-3 45 -14 65 -38 32 -38 -11 0 -20 -4 -20 -10 0 -15 26 -12 39 3 6 8 29 22 51
32 41 19 52 35 24 35 -13 0 -15 7 -10 35 3 19 9 50 12 69 7 39 33 67 82 86 28
11 35 11 42 -1 12 -19 18 0 24 81 3 43 10 68 20 76 10 7 16 26 16 50 0 52 10
84 24 84 7 0 19 21 27 48 12 41 17 47 38 44 13 -2 27 2 32 10 21 33 48 -48 54
-162 2 -36 4 -68 5 -72 0 -3 18 -25 40 -48 22 -23 40 -50 40 -61 0 -10 4 -19
9 -19 6 0 8 -10 5 -23 -3 -12 -6 -65 -8 -118 -4 -120 -19 -159 -61 -159 -36 0
-79 21 -81 38 -1 7 -2 21 -3 32 0 11 -8 20 -16 20 -8 0 -15 8 -16 18 -6 96
-36 214 -54 209 -5 -2 -13 -21 -18 -43 -6 -31 -4 -41 10 -51 9 -7 11 -13 5
-13 -7 0 -11 -14 -10 -38 0 -20 -6 -51 -15 -69 -15 -28 -15 -33 -2 -41 14 -7
14 -12 -1 -41 -13 -27 -14 -37 -4 -62 13 -30 30 -39 30 -16 1 6 17 20 38 30
36 17 37 17 52 -4 33 -47 104 -119 116 -119 8 0 22 -9 31 -20 22 -25 28 -25
51 1 17 18 20 18 26 4 3 -9 6 -68 7 -130 0 -114 -9 -155 -36 -155 -7 0 -17 -9
-20 -20 -3 -11 -14 -20 -24 -20 -10 0 -24 -7 -31 -15 -18 -21 -30 -84 -18 -91
7 -4 7 -9 0 -13 -16 -10 -42 -133 -42 -197 0 -33 -4 -64 -9 -69 -9 -11 -66
-184 -76 -233 -4 -17 -10 -32 -15 -32 -25 0 -15 -61 14 -81 52 -38 -135 -361
-395 -680 -94 -115 -119 -141 -189 -201 -30 -26 -81 -71 -112 -101 -179 -169
-480 -353 -758 -462 -203 -79 -276 -101 -480 -140 -41 -8 -106 -21 -145 -30
-87 -19 -96 -19 -89 0 4 9 0 15 -10 15 -10 0 -16 9 -16 25 0 18 7 26 26 31 47
12 100 42 84 47 -44 15 -152 25 -288 27 -25 0 -35 5 -39 19 -4 18 -12 19 -84
15 -71 -4 -83 -2 -119 21 -36 23 -60 67 -60 112 0 6 -11 25 -25 41 -14 17 -25
39 -25 51 0 25 -18 44 -91 98 -83 62 -86 66 -66 121 10 26 17 61 17 79 0 17 4
42 9 56 5 13 12 56 16 95 5 63 4 77 -14 106 -21 33 -21 35 -4 65 24 40 64 56
138 54 48 -1 63 -6 77 -23 16 -20 19 -20 40 -6 12 9 33 16 45 16 35 0 107 45
122 76 8 16 18 30 22 32 10 4 0 32 -12 32 -5 0 -9 -6 -9 -13 0 -11 -13 -12
-61 -5 -33 4 -69 12 -79 18 -10 5 -31 10 -46 10 -16 0 -41 13 -66 35 -35 32
-45 36 -87 34 -35 -2 -59 4 -87 20 -49 29 -55 40 -60 107 -2 30 -9 64 -15 76
-11 21 -12 21 -25 3 -8 -10 -14 -26 -14 -35 0 -9 -7 -25 -16 -36 -8 -10 -13
-13 -9 -6 11 22 -5 13 -34 -20 -25 -28 -27 -35 -16 -48 11 -13 8 -26 -21 -87
-21 -43 -42 -74 -54 -78 -11 -4 -20 -11 -20 -16 0 -5 -6 -9 -14 -9 -8 0 -17
-11 -20 -25 -7 -27 2 -75 13 -75 13 0 101 -92 117 -122 22 -42 11 -75 -31 -92
-43 -18 -54 -53 -31 -100 9 -19 16 -40 16 -46 0 -7 13 -34 29 -60 42 -68 47
-103 21 -146 -19 -34 -20 -38 -4 -61 12 -20 15 -44 12 -108 -4 -112 -7 -115
-129 -115 -54 0 -101 4 -104 10 -3 6 -24 10 -46 10 -21 0 -39 4 -39 9 0 14 59
41 76 34 21 -8 58 14 77 46 15 26 15 30 -8 77 -14 27 -34 61 -46 76 -15 18
-23 43 -24 72 -2 31 -12 60 -33 93 -17 26 -40 68 -50 92 -22 49 -17 80 22 136
42 59 60 115 39 115 -5 0 -19 10 -34 23 -20 17 -25 30 -23 62 4 82 16 160 25
171 5 6 6 13 3 17 -3 3 -1 15 6 26 6 12 7 20 3 20 -4 -1 -21 1 -36 6 -31 8
-101 -9 -128 -32 -18 -15 -45 -17 -54 -3 -3 5 -13 10 -22 10 -13 0 -13 -3 -3
-16 11 -13 8 -20 -20 -46 -31 -27 -38 -30 -70 -22 -20 6 -56 6 -86 0 -49 -8
-50 -10 -60 -52 -12 -49 -5 -72 36 -124 23 -29 39 -39 71 -44 26 -4 46 -2 55
5 19 16 94 3 110 -19 16 -21 18 -57 4 -83 -8 -15 -22 -19 -61 -19 -30 0 -60
-7 -75 -17 -35 -22 -101 -20 -149 5 -41 20 -47 27 -107 115 -50 73 -127 107
-256 112 -42 1 -84 -1 -93 -6 -8 -4 -47 -10 -85 -13 -38 -4 -82 -8 -99 -10
-30 -5 -135 39 -135 55 0 4 -21 22 -47 40 -27 17 -74 57 -106 88 -32 31 -55
48 -51 37 14 -36 -28 -12 -62 35 -30 42 -63 122 -64 152 -1 7 -23 41 -50 76
-27 36 -60 94 -73 130 -14 36 -35 91 -47 121 -28 70 -78 223 -90 275 -52 232
-80 416 -80 531 0 37 -4 54 -15 58 -9 3 -15 18 -15 36 0 31 -8 38 -26 20 -15
-15 -30 6 -38 50 -8 46 9 75 22 40 9 -22 11 -23 17 -7 4 9 5 28 1 41 -3 12 -3
26 1 29 10 11 32 -26 33 -55 0 -16 4 -28 8 -28 5 0 14 73 21 163 7 89 21 207
31 262 30 161 33 195 19 211 -9 11 -9 30 0 87 7 39 13 79 15 87 1 8 5 21 10
28 4 7 5 25 1 41 -4 19 -1 32 10 41 16 14 21 50 6 50 -5 0 -15 -15 -21 -34 -6
-19 -17 -37 -25 -40 -8 -3 -15 -13 -15 -21 0 -23 -48 -102 -65 -109 -8 -3 -24
-20 -36 -38 l-21 -33 5 55 c2 33 17 85 36 129 18 40 39 98 47 130 20 77 100
240 135 274 l28 29 -6 -51 c-3 -29 -2 -51 3 -51 6 0 25 26 44 58 50 84 97 140
133 158 72 34 89 47 121 98 32 49 52 116 35 116 -10 0 -5 65 6 95 5 11 20 36
34 55 14 19 37 51 51 72 14 20 52 77 84 125 80 118 315 347 439 428 53 34 37
8 -20 -35 -32 -24 -76 -61 -98 -84 -23 -23 -64 -61 -93 -85 -34 -27 -51 -49
-48 -58 4 -8 -23 -44 -70 -92 -41 -43 -83 -91 -93 -107 -10 -16 -48 -69 -85
-119 l-68 -90 31 -9 c17 -5 31 -13 31 -19 0 -5 -16 -27 -35 -48 -30 -33 -46
-69 -31 -69 3 0 23 26 45 57 22 31 102 122 179 202 76 80 140 151 141 156 4
16 33 45 40 40 4 -2 13 1 21 7 12 8 11 9 -5 4 -12 -4 -1 11 27 36 73 67 108
93 199 149 46 28 101 67 121 85 46 41 83 60 133 70 22 4 81 24 130 46 223 98
506 193 633 213 43 7 59 25 21 25 -12 0 -35 6 -52 14 -18 8 -45 17 -62 19 -75
13 -136 39 -123 52 12 12 112 33 163 34 36 0 46 -2 35 -9z m-395 -139 c7 -13
-41 -46 -112 -77 -32 -14 -78 -35 -102 -46 -30 -13 -47 -16 -54 -9 -7 7 -2 14
16 22 15 7 27 20 27 31 0 18 7 23 115 67 53 22 100 27 110 12z m-275 -103
c-10 -10 -31 -20 -47 -23 -27 -6 -135 -14 -130 -9 41 36 79 50 134 49 58 0 60
-1 43 -17z m2653 -259 c22 -12 37 -28 37 -41 0 -14 -50 -8 -75 8 -49 32 -15
61 38 33z m268 -311 c43 -24 45 -28 53 -89 8 -53 0 -67 -42 -75 -28 -6 -33 -3
-53 30 -26 45 -33 46 -26 2 5 -29 2 -37 -20 -52 -26 -16 -27 -16 -54 17 -15
19 -24 35 -19 37 5 2 6 10 3 18 -3 10 2 14 18 14 14 0 19 4 13 8 -19 12 -24
52 -7 52 8 0 24 -10 35 -22 l19 -23 -6 36 c-11 71 16 87 86 47z m14 -762 c32
-48 -12 -87 -64 -55 l-32 19 21 30 c26 36 54 38 75 6z m-4531 -797 c3 -17 6
-46 5 -63 l-1 -31 -7 30 c-4 17 -13 40 -20 53 -12 22 -8 42 8 42 5 0 11 -14
15 -31z m5556 -369 c0 -5 6 -10 14 -10 18 0 9 -45 -12 -62 -10 -8 -13 -9 -9
-1 4 6 3 13 -3 15 -5 1 -12 18 -16 36 -5 25 -3 32 10 32 9 0 16 -4 16 -10z
m-5493 -302 c-3 -8 -6 -5 -6 6 -1 11 2 17 5 13 3 -3 4 -12 1 -19z m1205 -1665
c27 -24 23 -43 -10 -43 -45 0 -73 43 -34 53 9 3 19 5 21 6 3 0 13 -6 23 -16z"></path>
<path d="M3240 6141 c0 -5 9 -11 21 -14 16 -4 18 -3 8 9 -13 16 -29 19 -29 5z"></path>
<path d="M3730 6080 c0 -5 5 -10 10 -10 6 0 10 5 10 10 0 6 -4 10 -10 10 -5 0
-10 -4 -10 -10z"></path>
<path d="M3378 6062 c-22 -15 -24 -20 -13 -35 17 -23 35 -22 35 3 0 11 5 20
10 20 6 0 10 7 10 15 0 19 -8 18 -42 -3z"></path>
<path d="M4020 6071 c0 -5 13 -19 29 -30 25 -18 30 -19 41 -6 7 8 22 15 33 15
15 0 18 3 10 11 -13 13 -113 22 -113 10z"></path>
<path d="M2820 6050 c0 -5 7 -10 15 -10 8 0 15 5 15 10 0 6 -7 10 -15 10 -8 0
-15 -4 -15 -10z"></path>
<path d="M3486 6022 c-3 -5 -9 -28 -15 -51 -12 -57 2 -95 44 -120 31 -18 34
-18 48 -3 31 37 31 44 -5 37 -45 -9 -73 20 -63 64 11 52 38 52 69 1 9 -17 22
-30 27 -30 16 0 24 33 9 38 -7 3 -29 20 -47 38 -33 33 -57 42 -67 26z"></path>
<path d="M3303 5908 c-19 -22 -19 -52 -2 -56 11 -2 18 6 22 25 6 32 -5 50 -20
31z"></path>
<path d="M3870 5860 c0 -5 5 -10 10 -10 6 0 10 5 10 10 0 6 -4 10 -10 10 -5 0
-10 -4 -10 -10z"></path>
<path d="M4480 5844 c0 -8 5 -12 10 -9 6 4 8 11 5 16 -9 14 -15 11 -15 -7z"></path>
<path d="M2410 5840 c-9 -6 -10 -10 -3 -10 6 0 15 5 18 10 8 12 4 12 -15 0z"></path>
<path d="M3815 5841 c-3 -5 -1 -12 4 -15 5 -3 11 1 15 9 6 16 -9 21 -19 6z"></path>
<path d="M4541 5832 c-6 -11 -13 -38 -17 -60 -6 -39 -8 -41 -47 -44 l-40 -3
36 -43 c20 -23 34 -48 31 -55 -2 -7 16 -25 41 -41 39 -24 52 -27 88 -22 23 4
52 14 65 22 18 12 26 13 38 3 8 -6 17 -9 21 -6 7 7 -81 117 -103 130 -8 4 -21
22 -29 40 -8 18 -27 47 -44 66 -28 31 -30 32 -40 13z"></path>
<path d="M3580 5754 c-7 -16 -19 -44 -28 -62 -12 -25 -13 -37 -4 -57 6 -14 16
-25 22 -25 5 0 10 -8 10 -19 0 -11 9 -21 23 -25 32 -8 47 -7 47 4 0 6 -6 10
-14 10 -15 0 -66 62 -66 79 0 6 10 32 21 57 16 33 19 48 11 56 -8 8 -14 3 -22
-18z"></path>
<path d="M4401 5758 c-5 -13 -7 -25 -5 -27 5 -6 34 26 34 38 0 20 -20 11 -29
-11z"></path>
<path d="M2065 5760 c-3 -5 -1 -10 4 -10 6 0 11 5 11 10 0 6 -2 10 -4 10 -3 0
-8 -4 -11 -10z"></path>
<path d="M2772 5748 c2 -18 11 -24 37 -26 l33 -3 -18 25 c-24 33 -57 35 -52 4z"></path>
<path d="M4185 5740 c-3 -5 -1 -10 4 -10 6 0 11 5 11 10 0 6 -2 10 -4 10 -3 0
-8 -4 -11 -10z"></path>
<path d="M4230 5661 c11 -22 30 -29 30 -11 0 5 -9 14 -21 20 -19 11 -20 10 -9
-9z"></path>
<path d="M4300 5605 c0 -13 51 -85 60 -85 13 0 13 4 -2 34 -10 23 -58 65 -58
51z"></path>
<path d="M3687 5554 c-3 -4 -4 -11 -1 -15 7 -12 54 -11 54 1 0 6 -4 10 -9 10
-5 0 -16 2 -23 5 -8 3 -17 3 -21 -1z"></path>
<path d="M3810 5511 c0 -13 26 -32 33 -24 8 7 -11 33 -24 33 -5 0 -9 -4 -9 -9z"></path>
<path d="M3569 5444 c-23 -24 -53 -43 -124 -78 -17 -8 -39 -24 -50 -36 -11
-13 -37 -33 -57 -46 -21 -14 -38 -31 -38 -39 0 -19 14 -19 30 0 7 8 18 15 24
15 7 0 25 14 42 31 16 17 58 47 94 67 36 19 76 44 89 54 13 10 32 18 42 18 25
0 24 16 0 30 -26 13 -24 14 -52 -16z"></path>
<path d="M3860 5463 c0 -4 9 -14 21 -21 18 -12 20 -11 17 5 -3 17 -38 32 -38
16z"></path>
<path d="M3910 5416 c0 -22 23 -56 38 -56 10 0 23 -5 29 -11 6 -6 19 -9 29 -6
18 4 18 4 -1 12 -11 5 -37 21 -57 38 -21 16 -38 26 -38 23z"></path>
<path d="M1477 5340 c-16 -22 -27 -46 -25 -52 4 -11 68 72 68 86 0 16 -18 2
-43 -34z"></path>
<path d="M3825 5295 c32 -26 45 -31 45 -16 0 11 -45 41 -62 41 -7 0 1 -11 17
-25z"></path>
<path d="M4071 5304 c0 -11 3 -14 6 -6 3 7 2 16 -1 19 -3 4 -6 -2 -5 -13z"></path>
<path d="M4775 5211 c-6 -11 9 -23 19 -14 9 9 7 23 -3 23 -6 0 -12 -4 -16 -9z"></path>
<path d="M4200 5090 c0 -5 5 -10 10 -10 6 0 10 5 10 10 0 6 -4 10 -10 10 -5 0
-10 -4 -10 -10z"></path>
<path d="M4260 5080 c0 -5 10 -14 22 -21 18 -10 20 -9 15 6 -4 9 -7 19 -7 21
0 2 -7 4 -15 4 -8 0 -15 -4 -15 -10z"></path>
<path d="M2460 5028 c-39 -39 -66 -123 -43 -133 27 -10 33 -5 33 28 0 51 21
82 55 83 47 1 55 3 55 15 0 5 -4 7 -10 4 -5 -3 -17 3 -27 15 -23 26 -24 26
-63 -12z"></path>
<path d="M4339 5020 c12 -11 27 -17 33 -14 14 9 -12 34 -36 34 -21 -1 -21 -1
3 -20z"></path>
<path d="M2655 4990 c3 -5 8 -10 11 -10 2 0 4 5 4 10 0 6 -5 10 -11 10 -5 0
-7 -4 -4 -10z"></path>
<path d="M4445 4990 c3 -5 13 -10 21 -10 8 0 14 5 14 10 0 6 -9 10 -21 10 -11
0 -17 -4 -14 -10z"></path>
<path d="M1261 4976 c-9 -10 -9 -16 -1 -21 17 -10 37 12 24 25 -8 8 -15 6 -23
-4z"></path>
<path d="M1107 4915 c-8 -17 -25 -49 -36 -72 -12 -23 -25 -45 -31 -48 -12 -8
-13 -25 -1 -25 5 0 12 8 15 18 9 25 50 98 65 116 7 8 11 21 9 28 -3 7 -11 0
-21 -17z"></path>
<path d="M1370 4931 c0 -5 5 -13 10 -16 6 -3 10 -2 10 4 0 5 -4 13 -10 16 -5
3 -10 2 -10 -4z"></path>
<path d="M2545 4930 c-3 -5 -1 -10 4 -10 6 0 11 5 11 10 0 6 -2 10 -4 10 -3 0
-8 -4 -11 -10z"></path>
<path d="M4650 4904 c0 -10 28 -34 41 -34 8 0 5 7 -6 20 -17 19 -35 26 -35 14z"></path>
<path d="M1170 4880 c-6 -11 -7 -20 -2 -20 10 0 32 21 32 32 0 16 -19 8 -30
-12z"></path>
<path d="M1420 4875 c7 -8 16 -12 21 -9 13 8 1 24 -18 24 -13 0 -13 -3 -3 -15z"></path>
<path d="M2506 4882 c-4 -7 -16 -10 -27 -7 -24 8 -27 -23 -3 -32 19 -7 48 20
42 38 -3 10 -6 10 -12 1z"></path>
<path d="M1256 4858 c-29 -42 -13 -54 17 -13 9 13 13 26 8 30 -5 3 -17 -5 -25
-17z"></path>
<path d="M4690 4835 c0 -8 5 -15 10 -15 6 0 10 7 10 15 0 8 -4 15 -10 15 -5 0
-10 -7 -10 -15z"></path>
<path d="M1440 4830 c0 -5 5 -10 10 -10 6 0 10 5 10 10 0 6 -4 10 -10 10 -5 0
-10 -4 -10 -10z"></path>
<path d="M2278 4739 c-2 -7 -27 -21 -54 -30 -49 -17 -49 -18 -52 -64 -2 -26 1
-52 6 -57 12 -12 71 17 79 38 9 24 -5 29 -27 9 -18 -16 -20 -16 -26 -1 -9 23
15 50 31 36 9 -7 15 -8 19 -1 4 6 19 8 34 5 19 -4 35 1 52 15 22 17 23 21 10
35 -22 21 -67 31 -72 15z"></path>
<path d="M901 4714 c-1 -6 -10 -21 -21 -34 -11 -13 -21 -32 -21 -44 -5 -72 -4
-84 2 -80 12 7 52 141 46 156 -3 7 -6 8 -6 2z"></path>
<path d="M3761 4661 c-14 -26 -14 -44 1 -39 15 5 29 46 18 53 -5 3 -14 -3 -19
-14z"></path>
<path d="M2477 4613 c-10 -10 -8 -43 2 -43 9 0 21 24 21 41 0 11 -14 12 -23 2z"></path>
<path d="M776 4587 c-8 -12 -17 -41 -20 -63 -3 -23 -10 -53 -15 -68 -17 -44
-2 -29 23 24 24 49 44 130 32 130 -3 0 -12 -10 -20 -23z"></path>
<path d="M1220 4545 c0 -8 5 -15 10 -15 6 0 10 7 10 15 0 8 -4 15 -10 15 -5 0
-10 -7 -10 -15z"></path>
<path d="M2125 4520 c-3 -5 -2 -10 4 -10 5 0 13 5 16 10 3 6 2 10 -4 10 -5 0
-13 -4 -16 -10z"></path>
<path d="M2442 4507 c-23 -24 -30 -57 -12 -57 6 0 15 11 20 24 5 13 14 27 19
31 13 7 15 25 3 25 -5 0 -18 -10 -30 -23z"></path>
<path d="M3116 4504 c-9 -8 -16 -20 -16 -25 0 -5 -8 -9 -18 -9 -28 0 -34 -11
-15 -32 13 -14 14 -21 5 -30 -18 -18 -14 -49 13 -107 15 -29 22 -57 18 -64 -5
-7 -12 -30 -18 -52 -11 -45 2 -42 -152 -33 -32 1 -58 -3 -65 -10 -7 -7 -24
-12 -38 -12 -33 0 -56 -18 -65 -50 l-7 -25 28 26 c29 26 86 43 134 39 63 -4
128 -3 163 4 33 6 38 10 33 28 -3 12 0 40 6 63 10 37 9 49 -11 94 -26 61 -21
128 10 157 18 16 20 16 42 -4 21 -19 30 -20 143 -15 83 4 127 2 142 -6 31 -17
28 4 -3 25 -22 14 -40 15 -141 8 l-116 -9 -14 27 c-16 32 -35 35 -58 12z"></path>
<path d="M2715 4478 c4 -13 13 -32 19 -43 36 -58 41 -175 10 -237 -12 -24 -63
-68 -78 -68 -3 0 -6 9 -6 20 0 19 -25 38 -35 28 -3 -2 -1 -19 4 -36 8 -27 7
-34 -11 -43 -12 -6 -16 -15 -11 -20 13 -13 84 2 91 20 3 9 19 27 35 41 29 25
57 86 57 127 0 12 5 25 10 28 15 9 12 51 -5 65 -20 17 -45 69 -45 95 0 21 -17
45 -33 45 -4 0 -5 -10 -2 -22z"></path>
<path d="M1220 4433 c-1 -33 -10 -67 -30 -108 -17 -33 -30 -64 -30 -69 0 -6
-12 -27 -27 -48 -20 -29 -23 -42 -15 -50 9 -9 18 3 38 48 14 32 33 74 41 93 9
19 24 44 34 55 20 21 23 44 13 95 -10 47 -24 37 -24 -16z"></path>
<path d="M4929 4468 c-21 -18 -14 -114 9 -123 25 -9 33 9 30 70 -3 61 -13 74
-39 53z"></path>
<path d="M976 4408 c-3 -18 -7 -58 -10 -88 -6 -53 -5 -54 10 -32 10 14 18 47
20 87 3 67 -11 90 -20 33z"></path>
<path d="M3460 4291 c0 -4 4 -21 9 -37 5 -16 12 -46 16 -66 3 -21 11 -38 17
-38 14 0 1 85 -18 122 -14 28 -24 36 -24 19z"></path>
<path d="M2716 4271 c-4 -7 -5 -15 -2 -18 9 -9 19 4 14 18 -4 11 -6 11 -12 0z"></path>
<path d="M1404 4234 c3 -9 6 -38 6 -66 0 -35 4 -48 13 -45 14 4 17 95 3 115
-12 17 -29 15 -22 -4z"></path>
<path d="M2685 4220 c-3 -5 -1 -10 4 -10 6 0 11 5 11 10 0 6 -2 10 -4 10 -3 0
-8 -4 -11 -10z"></path>
<path d="M960 4189 c-7 -11 -9 -24 -5 -27 7 -7 35 25 35 40 0 16 -19 8 -30
-13z"></path>
<path d="M865 4178 c-11 -35 -25 -95 -25 -110 0 -36 18 -17 28 30 6 26 13 57
17 70 8 23 -12 33 -20 10z"></path>
<path d="M3457 4123 c-8 -14 5 -73 14 -67 12 7 12 74 0 74 -6 0 -12 -3 -14 -7z"></path>
<path d="M4125 4100 c-3 -5 -2 -10 4 -10 5 0 13 5 16 10 3 6 2 10 -4 10 -5 0
-13 -4 -16 -10z"></path>
<path d="M3281 4025 c19 -19 38 -35 43 -35 6 0 -5 16 -24 35 -19 19 -38 35
-43 35 -5 0 6 -16 24 -35z"></path>
<path d="M2615 4030 c-3 -5 -1 -10 4 -10 6 0 11 5 11 10 0 6 -2 10 -4 10 -3 0
-8 -4 -11 -10z"></path>
<path d="M3430 3984 c0 -8 13 -28 29 -42 105 -98 111 -105 126 -155 8 -28 15
-58 15 -67 0 -18 35 -57 88 -97 20 -16 32 -34 32 -49 0 -21 16 -41 25 -32 11
10 -24 90 -45 105 -53 36 -69 62 -86 134 -15 62 -63 139 -89 139 -7 0 -29 18
-49 40 -40 44 -46 47 -46 24z"></path>
<path d="M3342 3951 c2 -7 7 -12 11 -12 12 1 9 15 -3 20 -7 2 -11 -2 -8 -8z"></path>
<path d="M1393 3931 c-10 -16 -9 -22 3 -32 9 -8 13 -21 9 -33 -10 -35 -14
-226 -5 -226 13 0 19 26 29 136 13 137 -4 207 -36 155z"></path>
<path d="M1260 3913 c0 -10 -3 -28 -6 -40 -4 -13 -2 -23 3 -23 13 0 30 41 25
63 -2 9 -8 17 -13 17 -5 0 -9 -8 -9 -17z"></path>
<path d="M2335 3847 c-4 -14 -3 -32 1 -39 5 -8 10 -3 16 17 4 16 3 34 -2 39
-5 5 -11 -1 -15 -17z"></path>
<path d="M1121 3842 c-13 -25 -14 -42 -2 -42 10 0 25 50 17 57 -2 3 -9 -4 -15
-15z"></path>
<path d="M890 3830 c0 -5 5 -10 10 -10 6 0 10 5 10 10 0 6 -4 10 -10 10 -5 0
-10 -4 -10 -10z"></path>
<path d="M940 3768 c0 -7 -3 -24 -6 -38 -5 -24 -5 -24 10 -6 18 22 21 56 6 56
-5 0 -10 -6 -10 -12z"></path>
<path d="M1081 3714 c-13 -30 -21 -58 -17 -61 8 -8 9 -7 34 54 24 57 26 63 14
63 -5 0 -19 -25 -31 -56z"></path>
<path d="M925 3668 c4 -18 9 -63 12 -100 2 -38 8 -68 13 -68 22 0 21 132 -1
146 -5 3 -9 16 -9 30 0 13 -5 24 -11 24 -7 0 -9 -11 -4 -32z"></path>
<path d="M1057 3578 c-5 -57 -1 -71 13 -48 12 19 13 100 1 100 -5 0 -11 -24
-14 -52z"></path>
<path d="M1740 3620 c0 -5 16 -10 35 -10 19 0 35 5 35 10 0 6 -16 10 -35 10
-19 0 -35 -4 -35 -10z"></path>
<path d="M1629 3564 c-11 -13 -10 -24 5 -63 10 -25 20 -56 23 -68 5 -22 23
-30 36 -17 7 7 -11 52 -30 75 -17 20 -17 76 0 82 7 4 6 6 -4 6 -9 1 -23 -6
-30 -15z"></path>
<path d="M1816 3538 c8 -27 12 -33 19 -27 7 8 -7 49 -17 49 -5 0 -6 -10 -2
-22z"></path>
<path d="M5470 3436 c0 -8 5 -18 10 -21 6 -3 10 1 10 9 0 8 -4 18 -10 21 -5 3
-10 -1 -10 -9z"></path>
<path d="M870 3313 c0 -10 11 -31 24 -48 20 -25 26 -27 39 -16 21 17 35 7 45
-32 7 -25 13 -31 29 -29 24 3 62 -40 87 -100 8 -21 22 -38 30 -38 17 0 66 -56
66 -76 0 -37 28 -98 53 -118 15 -11 43 -33 61 -48 19 -16 40 -28 48 -28 8 0
19 -5 24 -10 16 -16 85 16 78 35 -4 8 -10 15 -15 15 -4 0 -15 12 -22 26 -9 18
-16 23 -21 15 -4 -7 -2 -18 4 -26 6 -8 9 -19 5 -25 -10 -15 -51 -12 -66 6 -7
9 -32 29 -55 45 -35 24 -46 39 -64 93 -15 47 -32 74 -58 97 -19 17 -53 58 -73
89 -21 32 -47 61 -58 65 -12 3 -26 15 -31 26 -6 10 -29 28 -50 39 -22 11 -46
29 -52 40 -16 25 -28 26 -28 3z"></path>
<path d="M2400 3311 c0 -5 5 -22 10 -37 7 -18 14 -24 21 -17 7 7 6 19 -2 36
-12 26 -29 36 -29 18z"></path>
<path d="M3080 3270 c0 -5 7 -10 16 -10 8 0 12 5 9 10 -3 6 -10 10 -16 10 -5
0 -9 -4 -9 -10z"></path>
<path d="M3176 3262 c-2 -4 9 -15 25 -24 34 -20 49 -6 17 16 -25 18 -35 20
-42 8z"></path>
<path d="M2190 3240 c0 -11 5 -20 10 -20 6 0 10 9 10 20 0 11 -4 20 -10 20 -5
0 -10 -9 -10 -20z"></path>
<path d="M5920 3234 c-23 -59 -28 -103 -14 -115 15 -12 35 -4 33 14 -3 27 2
47 11 47 6 0 10 -7 10 -16 0 -30 25 -7 28 25 4 35 -20 71 -45 71 -7 0 -18 -12
-23 -26z"></path>
<path d="M1865 3240 c-7 -11 -8 -11 22 -14 13 -2 32 -11 43 -21 24 -22 26 -13
4 20 -17 25 -57 34 -69 15z"></path>
<path d="M1765 3209 c-4 -6 -5 -13 -1 -16 8 -8 56 6 56 17 0 13 -47 13 -55 -1z"></path>
<path d="M5571 3207 c-15 -19 -11 -79 6 -84 17 -6 27 40 16 73 -8 23 -10 24
-22 11z"></path>
<path d="M1625 3150 c-21 -22 -45 -40 -52 -40 -19 0 -33 -33 -22 -53 12 -21
29 -13 29 13 0 11 10 25 23 31 39 21 97 72 91 80 -10 17 -31 8 -69 -31z"></path>
<path d="M4680 3183 c-8 -2 -24 -8 -35 -13 -11 -5 -49 -11 -85 -14 -111 -9
-138 -17 -154 -42 -16 -23 -12 -59 5 -48 5 3 9 -3 9 -14 0 -24 -31 -52 -57
-52 -12 0 -40 -9 -64 -20 -51 -23 -87 -27 -49 -5 l25 14 -34 1 c-54 0 -170
-85 -146 -108 3 -3 20 8 38 24 36 33 77 58 83 51 7 -7 -29 -39 -72 -64 -10 -6
-18 -16 -16 -22 1 -6 -3 -11 -8 -11 -6 0 -26 -14 -46 -32 -19 -18 -47 -37 -62
-44 -47 -19 -78 -79 -47 -91 8 -3 13 -9 10 -13 -5 -9 17 -14 97 -25 25 -3 52
-12 58 -20 9 -11 5 -17 -26 -30 -20 -8 -35 -17 -33 -19 2 -2 32 -1 67 2 43 3
62 9 62 18 0 18 32 34 69 34 16 0 33 5 36 10 4 6 -8 10 -29 10 l-35 0 27 48
c15 26 27 53 29 61 7 53 46 91 91 91 10 0 28 8 42 17 14 10 39 16 60 14 32 -2
40 3 78 48 49 58 72 67 132 51 23 -6 44 -9 47 -7 2 3 -3 19 -11 36 -20 37 -20
80 -1 105 18 24 19 52 3 62 -7 5 -8 2 -3 -7 6 -11 5 -12 -6 -1 -14 13 -24 14
-49 5z"></path>
<path d="M2168 3173 c-10 -3 -18 -9 -18 -14 0 -12 37 -12 45 0 7 12 -5 19 -27
14z"></path>
<path d="M5482 3158 c2 -12 10 -23 18 -23 22 0 19 39 -3 43 -15 3 -18 -1 -15
-20z"></path>
<path d="M1925 3131 c-33 -15 -73 -31 -88 -35 -15 -3 -27 -10 -27 -15 0 -12
81 -1 99 13 8 6 39 18 70 26 31 8 55 20 54 25 -5 20 -49 14 -108 -14z"></path>
<path d="M1275 3141 c-4 -7 -2 -18 4 -24 6 -6 11 -19 11 -29 0 -10 5 -18 10
-18 15 0 12 43 -3 65 -11 13 -16 15 -22 6z"></path>
<path d="M2642 3128 c3 -20 9 -23 58 -25 39 -1 58 -7 67 -19 17 -24 16 -59 -2
-74 -20 -16 -8 -33 19 -26 13 3 34 -3 51 -14 17 -11 39 -20 51 -20 11 0 39 -9
63 -20 l42 -21 45 51 c39 42 51 50 81 50 19 0 48 8 63 17 25 14 36 15 80 5 28
-7 62 -12 75 -12 29 0 56 25 48 46 -5 13 -8 13 -31 -2 -21 -14 -32 -15 -82 -4
-48 10 -62 10 -86 -3 -16 -8 -49 -17 -73 -20 -34 -4 -53 -15 -87 -48 l-43 -42
-43 12 c-24 7 -63 22 -88 34 -38 19 -46 27 -51 59 -8 52 -24 67 -80 74 -27 4
-52 11 -55 15 -10 18 -25 9 -22 -13z"></path>
<path d="M4970 3090 c0 -5 5 -10 11 -10 5 0 7 5 4 10 -3 6 -8 10 -11 10 -2 0
-4 -4 -4 -10z"></path>
<path d="M1730 3080 c0 -5 5 -10 10 -10 6 0 10 5 10 10 0 6 -4 10 -10 10 -5 0
-10 -4 -10 -10z"></path>
<path d="M4889 3028 c-24 -17 -52 -42 -62 -55 -10 -13 -23 -21 -28 -18 -5 4
-9 -3 -9 -14 0 -19 -19 -68 -83 -214 -30 -68 -26 -159 8 -207 25 -34 25 -35 5
-44 -28 -13 -25 -22 11 -35 39 -14 164 2 188 23 22 20 50 20 79 1 27 -19 80
-27 88 -13 4 5 0 21 -7 35 -20 37 5 76 54 84 24 4 37 2 37 -5 0 -6 7 -3 14 7
8 10 12 34 10 58 -2 27 3 54 17 81 11 22 18 47 15 55 -6 13 44 42 84 48 22 3
25 44 3 60 -10 8 -30 11 -45 8 -17 -3 -28 -1 -28 6 0 6 -11 8 -29 5 -27 -6
-31 -3 -45 31 -9 21 -13 48 -10 62 6 22 4 24 -14 19 -24 -8 -81 13 -101 37
-17 21 -41 22 -41 2 0 -14 -3 -14 -30 0 -37 19 -30 20 -81 -17z m81 -18 c0 -5
-4 -10 -10 -10 -5 0 -10 5 -10 10 0 6 5 10 10 10 6 0 10 -4 10 -10z"></path>
<path d="M4323 3043 c-23 -9 -15 -35 10 -31 12 2 22 9 22 17 0 16 -14 22 -32
14z"></path>
<path d="M3660 3011 c-14 -4 -30 -16 -35 -28 -6 -11 -17 -28 -24 -37 -8 -9
-11 -26 -7 -41 7 -28 26 -25 26 5 0 20 46 80 62 80 30 0 80 -36 93 -66 15 -36
51 -62 67 -46 6 6 0 15 -16 26 -16 10 -26 26 -26 40 0 18 -11 31 -46 50 -49
27 -54 28 -94 17z"></path>
<path d="M5270 2992 c0 -4 15 -22 33 -39 32 -30 34 -30 45 -12 11 17 9 21 -12
29 -13 5 -27 14 -31 19 -7 13 -35 15 -35 3z"></path>
<path d="M1375 2890 c3 -5 8 -10 11 -10 2 0 4 5 4 10 0 6 -5 10 -11 10 -5 0
-7 -4 -4 -10z"></path>
<path d="M3600 2847 c0 -13 -13 -44 -30 -70 -28 -45 -39 -88 -22 -87 11 1 72
135 72 159 0 12 -4 21 -10 21 -5 0 -10 -10 -10 -23z"></path>
<path d="M3996 2861 c-4 -5 -2 -12 3 -15 5 -4 12 -2 15 3 4 5 2 12 -3 15 -5 4
-12 2 -15 -3z"></path>
<path d="M1050 2777 c0 -8 7 -21 16 -28 14 -11 15 -10 12 11 -3 26 -28 41 -28
17z"></path>
<path d="M1552 2713 c-12 -2 -27 -13 -32 -24 -6 -10 -20 -19 -30 -19 -11 0
-19 -5 -17 -12 1 -7 -7 -12 -18 -13 -15 0 -20 -6 -19 -25 1 -14 -4 -28 -11
-32 -7 -4 -18 -29 -24 -55 -7 -27 -17 -56 -22 -66 -6 -10 -7 -26 -4 -36 3 -10
-1 -24 -10 -31 -9 -7 -29 -30 -46 -51 -28 -36 -29 -40 -15 -67 8 -15 40 -50
71 -77 44 -40 65 -70 105 -150 48 -98 81 -140 128 -165 30 -15 95 9 123 45 12
15 35 26 62 30 50 9 67 20 67 47 0 10 13 31 29 46 16 15 32 37 36 50 3 12 11
22 16 22 6 0 6 7 0 18 -6 9 -12 30 -16 45 -7 32 -25 32 -40 -1 -13 -29 -19
-28 -43 10 -13 21 -29 33 -43 33 -18 0 -25 7 -30 32 -7 38 -35 83 -50 83 -6 0
-17 7 -25 15 -9 8 -23 15 -31 15 -14 0 -12 -4 5 -23 12 -13 22 -27 22 -32 0
-4 12 -24 27 -44 16 -20 29 -47 30 -61 0 -14 3 -34 5 -45 2 -17 -2 -20 -26
-18 -16 1 -36 9 -46 18 -9 8 -26 15 -38 15 -12 0 -27 9 -34 20 -7 11 -17 20
-21 20 -5 0 1 -13 13 -30 28 -39 20 -49 -33 -43 -29 3 -50 14 -69 34 -15 16
-32 29 -38 29 -16 0 -12 77 5 94 14 14 14 19 0 47 -10 18 -14 41 -11 55 8 30
52 50 72 33 9 -8 14 -8 14 -1 0 6 -11 19 -25 30 -18 15 -25 29 -25 56 0 36 28
108 40 101 4 -2 6 6 6 18 -1 20 3 22 49 19 39 -2 56 -8 80 -31 37 -36 85 -51
85 -27 0 9 -15 22 -34 30 -18 7 -43 28 -56 46 -15 21 -25 28 -30 20 -6 -9 -13
-9 -28 -1 -11 6 -22 10 -24 10 -2 -1 -13 -4 -26 -6z m-95 -135 c-3 -8 -6 -5
-6 6 -1 11 2 17 5 13 3 -3 4 -12 1 -19z"></path>
<path d="M1164 2699 c-16 -27 -4 -87 27 -136 19 -29 37 -53 42 -53 4 0 7 18 7
40 0 33 3 40 20 40 11 0 20 3 20 7 0 14 -110 111 -116 102z"></path>
<path d="M1836 2669 c-31 -37 -31 -36 -7 -75 15 -24 28 -33 56 -36 20 -2 38
-1 40 3 3 3 18 9 35 12 24 5 30 12 30 32 0 36 -47 81 -91 89 -33 6 -40 3 -63
-25z m99 -29 c9 -10 15 -26 12 -33 -7 -18 -57 -28 -79 -16 -18 9 -25 49 -11
62 13 14 61 6 78 -13z"></path>
<path d="M3615 2690 c-3 -5 -1 -10 4 -10 6 0 11 5 11 10 0 6 -2 10 -4 10 -3 0
-8 -4 -11 -10z"></path>
<path d="M3640 2692 c0 -15 60 -43 80 -37 30 10 24 25 -9 25 -17 0 -33 5 -36
10 -7 12 -35 14 -35 2z"></path>
<path d="M1067 2663 c-4 -3 -7 -11 -7 -17 0 -6 5 -5 12 2 6 6 9 14 7 17 -3 3
-9 2 -12 -2z"></path>
<path d="M3855 2660 c3 -5 11 -10 16 -10 6 0 7 5 4 10 -3 6 -11 10 -16 10 -6
0 -7 -4 -4 -10z"></path>
<path d="M3574 2636 c-8 -22 -2 -27 16 -16 12 7 12 12 3 21 -10 10 -14 9 -19
-5z"></path>
<path d="M4420 2630 c0 -8 25 -20 41 -20 20 0 7 18 -16 22 -14 3 -25 2 -25 -2z"></path>
<path d="M3890 2620 c0 -5 5 -10 10 -10 6 0 10 5 10 10 0 6 -4 10 -10 10 -5 0
-10 -4 -10 -10z"></path>
<path d="M3547 2604 c-4 -4 -7 -21 -7 -38 0 -28 1 -29 17 -14 12 13 14 23 7
38 -5 12 -13 18 -17 14z"></path>
<path d="M1590 2573 c0 -25 1 -26 20 -8 21 19 18 35 -6 35 -9 0 -14 -10 -14
-27z"></path>
<path d="M3925 2590 c3 -5 13 -10 21 -10 8 0 14 5 14 10 0 6 -9 10 -21 10 -11
0 -17 -4 -14 -10z"></path>
<path d="M1650 2581 c0 -6 5 -13 10 -16 6 -3 10 1 10 9 0 9 -4 16 -10 16 -5 0
-10 -4 -10 -9z"></path>
<path d="M1822 2541 c2 -7 7 -12 11 -12 12 1 9 15 -3 20 -7 2 -11 -2 -8 -8z"></path>
<path d="M3270 2519 c-36 -5 -75 -7 -86 -4 -32 7 -78 -20 -97 -57 -10 -18 -26
-46 -36 -63 -11 -16 -20 -37 -20 -46 -1 -9 -12 -32 -25 -51 -16 -24 -21 -40
-15 -49 7 -11 13 -9 29 11 10 14 24 39 30 55 20 54 52 115 74 138 18 19 39 24
147 35 119 13 179 10 179 -8 0 -5 -4 -12 -10 -15 -14 -9 -12 -25 3 -25 20 0
61 60 49 72 -14 14 -146 18 -222 7z"></path>
<path d="M4650 2522 c0 -5 7 -9 15 -9 8 0 15 4 15 9 0 4 -7 8 -15 8 -8 0 -15
-4 -15 -8z"></path>
<path d="M1620 2491 c0 -6 5 -13 10 -16 6 -3 10 1 10 9 0 9 -4 16 -10 16 -5 0
-10 -4 -10 -9z"></path>
<path d="M3370 2359 c0 -17 4 -28 10 -24 6 3 10 17 10 31 0 13 -4 24 -10 24
-5 0 -10 -14 -10 -31z"></path>
<path d="M3355 2310 c-3 -5 -1 -10 4 -10 6 0 11 5 11 10 0 6 -2 10 -4 10 -3 0
-8 -4 -11 -10z"></path>
<path d="M2760 2140 c0 -5 5 -10 10 -10 6 0 10 5 10 10 0 6 -4 10 -10 10 -5 0
-10 -4 -10 -10z"></path>
<path d="M2302 2128 c6 -18 28 -21 28 -4 0 9 -7 16 -16 16 -9 0 -14 -5 -12
-12z"></path>
<path d="M2377 2103 c-4 -6 0 -18 7 -28 8 -11 16 -14 19 -8 4 6 0 18 -7 28 -8
11 -16 14 -19 8z"></path>
<path d="M4853 1778 c-43 -11 -50 -26 -18 -38 38 -14 42 -13 48 18 3 15 5 27
4 28 -1 1 -16 -3 -34 -8z"></path>
<path d="M3520 1112 c0 -9 102 -32 110 -25 3 3 -4 11 -14 19 -21 15 -96 20
-96 6z"></path>
</g>
</svg>